<?xml version="1.0"?>
<svg xmlns="http://www.w3.org/2000/svg" version="1.2" baseProfile="tiny" width="800" height="191" viewBox="0 0 800 191" stroke-linecap="round" stroke-linejoin="round">
<g id="cb_2024_us_state_20m">
<path d="M 170.48 143.54 173.55 143.54 177.16 143.54 177.16 148.84 177.84 149.33 178.77 149.31 178.96 149.77 179.97 150 181.39 150.07 181.91 150.75 182.34 150.37 182.85 150.82 183.94 150.5 185.25 151.17 185.72 150.8 187.78 150.45 188.64 151.05 189.43 151.32 190.41 151.55 190.42 152.97 190.42 155.68 190.88 156.74 191.55 157.78 191.55 158.46 191.11 159.45 191.17 160.71 190.67 161.35 190.87 161.64 190.38 161.69 189.19 162.21 187.43 163.75 185.63 164.67 184.09 165.86 183.18 167.38 182.99 168.3 183.51 171 182.9 171.33 182.07 170.8 181.17 170.79 179.14 169.87 178.43 168.05 178.15 166.91 177.51 166.49 177.31 166.02 176.57 165.31 175.66 163.15 174.04 161.52 172.04 161.16 171.2 161.52 170.77 162.79 169.86 163.45 168.73 162.75 167.94 162.43 167.06 161.68 166.77 161.08 166.7 160.3 166.03 159.12 165.34 158.74 163.42 157.08 162.64 156.23 162.43 155.66 166.83 155.66 170.34 155.66 170.39 150.14 170.39 147.15 170.48 143.54 Z"/>
<path d="M 123.29 127.73 127.1 127.7 130.36 127.74 132.66 127.74 132.67 133.74 132.66 136.5 135 138.58 137.82 141.16 140.47 143.65 144.6 147.65 144.6 148 145.7 149.65 144.82 150.54 144.84 151.55 144.44 152.02 144.52 152.92 144.97 153.43 144.41 153.76 139.06 154.25 138.71 152.99 138.34 152.31 136.82 151.01 136.23 151.06 135.96 150.28 134.64 150.1 133.51 149.22 131.66 149.15 131.22 148.79 131.25 147.31 130.67 146.98 128.92 144.46 128.46 144.08 128.28 143.31 128.68 142.66 127.33 141.63 127.06 140.69 127.85 140.28 126.12 139.26 125.98 138.5 124.41 136.75 124.15 135.47 124.09 134.11 122.95 132.86 122.85 132.34 123.5 130.72 123.62 129.39 123.29 127.73 Z"/>
<path d="M 201.34 142.2 201.79 141.51 202.8 141.96 202.82 141.03 203.72 140.79 203.8 139.91 205.15 139.5 205.68 139.79 206.7 139.65 207.6 138.93 208.48 139.26 208.72 138.54 210.12 137.39 211.01 136.84 210.94 136.2 211.73 136.15 212.29 137.06 213.8 137.35 214.35 137.65 215.23 137.2 215.89 138.15 215.82 138.96 216.55 140.23 217.28 140.65 216.42 141.41 215.59 141.84 214.68 142.86 213.48 143.26 211.01 143.25 207.18 143.12 204.19 143.17 203.75 143.54 200.44 143.54 201.27 143.09 201.34 142.2 Z"/>
<path d="M 209.19 147.69 212.04 147.68 214.74 147.65 214.23 148.51 215.27 149.08 215.97 150.5 217.37 151.79 217.76 152.62 218.32 152.98 218.55 154.06 219 154.43 219.18 155.36 219.69 155.57 219.14 156.38 218.76 157.73 218.54 157.94 218.45 159.02 217.34 158.71 216.72 159.39 210.84 159.01 210.53 158.27 210.3 157.78 210.44 156.85 210.22 156.08 210.4 155.3 210.78 154.97 210.13 153.39 209.19 147.69 Z"/>
<path d="M 194.93 113.06 196.81 112.62 198.48 113.52 199.14 114.26 201.43 114.9 202.05 115.27 203.6 115.59 204.35 116.38 204.16 117.4 204.77 118.22 203.9 119.39 204.36 119.65 205.5 118.26 205.94 118.27 205.09 119.81 204.45 122.03 204.51 122.62 204.11 123.77 204.09 124.66 204.38 125.36 204.3 126.24 202.29 126.24 197.98 126.19 196.88 125 197.06 123.93 196.7 123.17 196.64 122.34 196.21 121.63 195.2 120.92 195.04 120.51 193.74 119.84 193.17 119.24 193.27 117.62 193.52 117.13 193.03 116.25 193.36 115.71 194.31 115.1 194.31 113.2 194.93 113.06 Z"/>
<path d="M 124.77 114.51 125.73 114.75 126.4 115.47 126.49 116.36 127.63 116.8 128.63 116.28 130.25 116.47 131.35 116.15 132.19 116.22 132.74 115.9 134.61 115.56 134.91 115.34 139.52 115.36 140.53 116.57 139.71 118.74 139.2 119.37 138.8 120.42 139.57 121.16 139.28 122.18 139.28 127.72 135.38 127.74 132.66 127.74 130.36 127.74 127.1 127.7 123.29 127.73 122.85 126.97 122.84 125.74 122.53 125.19 123.24 123 123.43 121.91 123.82 118.06 123.85 114.89 124.77 114.51 Z"/>
<path d="M 186.58 131.91 189.32 131.95 192.43 131.92 195.56 131.83 196.25 132.52 196.05 133.12 196.37 134.4 197.79 135.77 197.95 136.73 199.16 136.93 198.58 138.43 198.92 139.08 200.47 140.2 200.53 141.24 200.84 142.03 201.34 142.2 201.27 143.09 200.44 143.54 200.47 143.97 200 144.92 198.59 144.93 199.27 144.08 199.07 143.55 194.18 143.54 189.14 143.54 189.14 142.15 189.16 136.18 188.73 135.91 188.03 134.91 188.6 134.34 187.6 133.62 186.83 132.68 186.58 131.91 Z"/>
<path d="M 231.3 139.48 232.25 139.27 231.56 140.06 230.97 141.61 230.51 141.34 230.69 140.57 231.3 139.48 Z M 217.28 140.65 217.54 141.35 218.19 141.57 219.62 141.3 221.01 140.65 221.01 140.24 222.13 138.57 222.44 137.67 223.22 138.17 223.89 136.96 224.39 136.81 225.19 136.05 225.34 135.16 226.49 136.12 226.73 135.58 227.31 136.28 228.07 136.69 228.25 137.1 228.05 137.54 227.62 138.02 228.42 138.74 229.19 138.93 230.03 139.66 229.83 140.27 230 140.97 229.68 141.52 229.96 142.25 230.57 142.37 230.86 143.4 224.98 143.42 221 143.42 217.93 143.29 213.48 143.26 214.68 142.86 215.59 141.84 216.42 141.41 217.28 140.65 Z" fill-rule="evenodd"/>
<path d="M 200 144.92 200.47 143.97 200.44 143.54 203.75 143.54 204.19 143.17 207.18 143.12 211.01 143.25 213.48 143.26 217.93 143.29 217.15 144.58 216.74 144.48 215.48 144.94 215.03 145.51 213.88 146.12 213.27 146.12 212.13 147.03 212.04 147.68 209.19 147.69 203.42 147.66 198.72 147.66 199.21 147.33 199.14 146.82 199.51 145.75 200.03 145.44 200 144.92 Z"/>
<path d="M 190.42 152.97 194.46 152.99 196.82 153.01 197.11 155.39 196.39 156.18 195.99 157.39 195.94 158.14 197.72 158.27 200.02 158.26 199.77 158.97 200.47 160.38 199.76 160.8 200.07 161.17 200.65 160.69 201.22 160.68 200.56 162.37 201.19 162.53 201.3 163.33 199.76 162.59 198.91 163.19 197.48 163.26 196.57 162.77 196.31 162.14 194.82 161.91 194.24 162.05 192.34 161.44 190.87 161.64 190.67 161.35 191.17 160.71 191.11 159.45 191.55 158.46 191.55 157.78 190.88 156.74 190.42 155.68 190.42 152.97 Z"/>
<path d="M 222.19 126.91 223.58 126.02 224.22 125.34 223.72 124.47 223.73 123.9 224.89 123.58 226.64 123.66 227.11 123.99 228.44 123.88 229.63 123.11 230.05 122.24 229.64 121.87 229.92 121 230.67 120.55 232.22 118.96 233.15 118.47 236.47 118.48 236.37 119.71 236.58 120.27 236.26 121.5 236.7 123.07 236.65 125.47 236.15 127.57 236.01 129.82 235.77 130.74 236.99 130.78 238.83 130.49 239.6 130.67 237.21 131.63 234.43 132.15 235.25 130.7 233.46 129.64 232.82 129.22 232.53 128.2 232.03 127.74 226.48 127.73 222.19 127.73 222.19 126.91 Z"/>
<path d="M 139.52 115.36 139.26 114.02 139.24 109.69 139.26 105.46 141.45 105.46 141.45 108.82 142.18 109.82 142.21 110.74 143.06 111.27 143.91 112.54 144.79 113.27 145.3 113.26 144.94 115.24 144.88 116.75 145.39 117 146.07 116.3 146.6 117.49 147.23 118.33 147.3 119.01 147.94 119.26 148.22 120.17 151.43 119.91 151.97 119.38 152.58 120.16 152.59 123.74 152.58 127.72 150.22 127.73 145.92 127.74 141.85 127.73 139.28 127.72 139.28 122.18 139.57 121.16 138.8 120.42 139.2 119.37 139.71 118.74 140.53 116.57 139.52 115.36 Z"/>
<path d="M 217.63 174.45 218.45 173.86 218.89 174.2 217.63 174.45 Z M 210.53 158.27 210.84 159.01 216.72 159.39 217.34 158.71 218.45 159.02 218.86 161.4 219.51 163.03 220.36 164.43 220.44 165.81 220.81 166.59 221.56 168.8 221.42 171.38 220.99 171.89 220.86 173.02 219.85 172.94 219.26 173.11 219.11 172.39 218.58 171.48 217.82 171.16 217.38 169.85 216.81 169.75 216.62 169.05 215.67 167.35 215.33 166.3 215.3 165.5 215.75 164.56 215.38 163.15 214.61 162.67 213.47 161.06 212.62 160.59 212.12 160.7 211.5 161.34 210.44 161.91 209.75 161.72 209.68 161.05 208.31 160.15 206.9 159.83 204.93 160.13 205.2 159.16 204.75 158.27 208.55 158.28 210.53 158.27 Z" fill-rule="evenodd"/>
<path d="M 196.25 132.52 196.43 131.83 196.92 131.65 197.29 130.83 196.93 129.95 197.12 129.44 198.66 128.92 199.01 128.28 199.05 127.4 197.98 126.19 202.29 126.24 204.3 126.24 204.23 126.82 204.92 128.59 204.91 132.06 204.9 135.5 204.69 136.21 204.98 137.19 203.79 139.26 203.8 139.91 203.72 140.79 202.82 141.03 202.8 141.96 201.79 141.51 201.34 142.2 200.84 142.03 200.53 141.24 200.47 140.2 198.92 139.08 198.58 138.43 199.16 136.93 197.95 136.73 197.79 135.77 196.37 134.4 196.05 133.12 196.25 132.52 Z"/>
<path d="M 141.45 105.46 146.69 105.47 151.57 105.47 157.13 105.46 163.7 105.46 168.15 105.46 168.17 109.47 168.16 115.52 168.13 118.52 163.22 118.54 157.98 118.52 152.59 118.51 152.58 120.16 151.97 119.38 151.43 119.91 148.22 120.17 147.94 119.26 147.3 119.01 147.23 118.33 146.6 117.49 146.07 116.3 145.39 117 144.88 116.75 144.94 115.24 145.3 113.26 144.79 113.27 143.91 112.54 143.06 111.27 142.21 110.74 142.18 109.82 141.45 108.82 141.45 105.46 Z"/>
<path d="M 183.33 105.46 187.94 105.46 187.94 104.15 188.69 104.37 188.97 106.17 189.52 106.5 191.7 106.99 192.84 106.7 195.98 108.64 197.53 108 197.84 108.5 199.11 108.44 199.47 109.38 197.48 110.28 196.17 111.66 194.82 112.75 194.93 113.06 194.31 113.2 194.31 115.1 193.36 115.71 193.03 116.25 193.52 117.13 193.27 117.62 193.17 119.24 193.74 119.84 195.04 120.51 195.2 120.92 196.21 121.63 196.64 122.34 196.7 123.17 190.58 123.18 185.05 123.18 185.04 117.55 184.22 116.45 184.81 115.55 184.72 114.32 184.3 113.29 184.16 110.23 183.51 108.25 183.61 106.58 183.33 105.46 Z"/>
<path d="M 222.82 134.43 227.29 134.43 231.03 134.42 231.24 138.04 232.68 138.07 232.25 139.27 231.3 139.48 230.79 139.42 230.81 138.66 228.64 138.58 228.05 137.54 228.25 137.1 228.07 136.69 227.31 136.28 226.73 135.58 226.49 134.81 225.93 134.57 223.68 135.15 222.8 135.91 222.82 134.43 Z"/>
<path d="M 185.05 123.18 190.58 123.18 196.7 123.17 197.06 123.93 196.88 125 197.98 126.19 199.05 127.4 199.01 128.28 198.66 128.92 197.12 129.44 196.93 129.95 197.29 130.83 196.92 131.65 196.43 131.83 196.25 132.52 195.56 131.83 192.43 131.92 189.32 131.95 186.58 131.91 186.23 129.34 185.92 128.34 185.29 127.22 185.07 126.25 184.68 125.37 185.08 124.36 185.05 123.18 Z"/>
<g/>
<path d="M 210.97 128.63 213.98 128.52 215.35 128.95 216.19 129.55 217.22 129.17 217.79 129.25 218.8 128.44 220.5 127.79 220.51 131.75 219.81 134.45 219.15 135.21 217.93 135.72 217.44 136.7 216.74 137.07 216.49 138.07 215.89 138.15 215.23 137.2 214.35 137.65 213.8 137.35 212.29 137.06 211.73 136.15 210.94 136.2 210.97 132.59 210.97 128.63 Z"/>
<path d="M 168.14 124.7 172.53 124.71 176.72 124.71 180.5 124.71 181.72 125.4 181.93 125.11 183.31 125.15 184.51 125.74 185.07 126.25 185.29 127.22 185.92 128.34 186.23 129.34 186.58 131.91 186.83 132.68 187.6 133.62 181.44 133.61 177.58 133.61 172.6 133.61 172.6 130.69 168.14 130.69 168.14 124.7 Z"/>
<path d="M 125.46 106.53 126.56 106.6 126.27 107.42 125.46 106.53 Z M 139.26 105.46 139.24 109.69 139.26 114.02 139.52 115.36 134.91 115.34 134.61 115.56 132.74 115.9 132.19 116.22 131.35 116.15 130.25 116.47 128.63 116.28 127.63 116.8 126.49 116.36 126.4 115.47 125.73 114.75 124.77 114.51 123.58 114.48 123.58 112.97 122.84 109.84 122.27 108.93 122.31 107.51 123.65 108.22 125.98 108.51 126.52 108.34 126.78 106.85 126.52 105.45 128.76 105.47 135.25 105.46 139.26 105.46 Z" fill-rule="evenodd"/>
<path d="M 168.13 118.52 168.16 115.52 172.52 115.52 178.29 115.53 182.11 115.55 184.81 115.55 184.22 116.45 185.04 117.55 185.05 123.18 185.08 124.36 184.68 125.37 185.07 126.25 184.51 125.74 183.31 125.15 181.93 125.11 181.72 125.4 180.5 124.71 176.72 124.71 172.53 124.71 168.14 124.7 168.13 118.52 Z"/>
<path d="M 189.14 143.54 194.18 143.54 199.07 143.55 199.27 144.08 198.59 144.93 200 144.92 200.03 145.44 199.51 145.75 199.14 146.82 199.21 147.33 198.72 147.66 198.1 148.69 198.13 149.23 197.42 149.75 196.71 151.61 197.03 152.4 196.82 153.01 194.46 152.99 190.42 152.97 190.41 151.55 189.43 151.32 189.55 146.64 189.14 143.54 Z"/>
<path d="M 196.82 153.01 197.03 152.4 196.71 151.61 197.42 149.75 198.13 149.23 198.1 148.69 198.72 147.66 203.42 147.66 203.64 147.94 203.15 152.53 202.82 155.83 202.98 159.9 201.87 159.84 200.47 160.38 199.77 158.97 200.02 158.26 197.72 158.27 195.94 158.14 195.99 157.39 196.39 156.18 197.11 155.39 196.82 153.01 Z"/>
<path d="M 157.02 130.69 163.39 130.7 168.14 130.69 172.6 130.69 172.6 133.61 172.61 137.37 172.62 142.17 170.48 142.15 166.63 142.17 163.8 142.16 159.36 142.15 157.04 142.15 157 138.57 157.02 133.98 157.02 130.69 Z"/>
<path d="M 217.93 143.29 221 143.42 224.98 143.42 230.86 143.4 231.19 144.6 231.76 146.02 231.6 147.04 230.25 147.68 229.37 148.77 228.94 148.47 228.03 148.65 226.92 149.38 226.2 150.74 224.91 150.75 222.38 148.18 219.89 148.13 219.34 147.25 216.3 147.1 214.74 147.65 212.04 147.68 212.13 147.03 213.27 146.12 213.88 146.12 215.03 145.51 215.48 144.94 216.74 144.48 217.15 144.58 217.93 143.29 Z"/>
<path d="M 145.92 127.74 150.22 127.73 152.58 127.72 152.58 130.7 157.02 130.69 157.02 133.98 157 138.57 157.04 142.15 152.07 142.15 148.31 142.15 145.9 142.15 145.9 136.49 145.91 132.46 145.92 127.74 Z"/>
<path d="M 170.48 142.15 172.62 142.17 175.26 142.15 179.1 142.15 182.81 142.15 186.54 142.15 189.14 142.15 189.14 143.54 189.55 146.64 189.43 151.32 188.64 151.05 187.78 150.45 185.72 150.8 185.25 151.17 183.94 150.5 182.85 150.82 182.34 150.37 181.91 150.75 181.39 150.07 179.97 150 178.96 149.77 178.77 149.31 177.84 149.33 177.16 148.84 177.16 143.54 173.55 143.54 170.48 143.54 170.48 142.15 Z"/>
<path d="M 168.13 118.52 168.14 124.7 168.14 130.69 163.39 130.7 157.02 130.69 152.58 130.7 152.58 127.72 152.59 123.74 152.58 120.16 152.59 118.51 157.98 118.52 163.22 118.54 168.13 118.52 Z"/>
<path d="M 215.89 138.15 216.49 138.07 216.74 137.07 217.44 136.7 217.93 135.72 219.15 135.21 219.81 134.45 220.51 131.75 220.5 134.43 222.82 134.43 222.8 135.91 223.68 135.15 225.93 134.57 226.49 134.81 226.73 135.58 226.49 136.12 225.34 135.16 225.19 136.05 224.39 136.81 223.89 136.96 223.22 138.17 222.44 137.67 222.13 138.57 221.01 140.24 221.01 140.65 219.62 141.3 218.19 141.57 217.54 141.35 217.28 140.65 216.55 140.23 215.82 138.96 215.89 138.15 Z"/>
<path d="M 204.92 128.59 205.5 128.85 206.48 128.44 210.97 128.44 210.97 128.63 210.97 132.59 210.94 136.2 211.01 136.84 210.12 137.39 208.72 138.54 208.48 139.26 207.6 138.93 206.7 139.65 205.68 139.79 205.15 139.5 203.8 139.91 203.79 139.26 204.98 137.19 204.69 136.21 204.9 135.5 204.91 132.06 204.92 128.59 Z"/>
<path d="M 236.65 125.47 238.44 125.53 241.03 125.62 242.09 125.09 242.45 125.97 241.74 126.65 242.28 127.09 242.44 127.84 243.19 128.82 242.28 129.25 241.42 129.22 240.84 127.67 239.91 127.7 236.15 127.57 236.65 125.47 Z"/>
<path d="M 132.66 127.74 135.38 127.74 139.28 127.72 141.85 127.73 145.92 127.74 145.91 132.46 145.9 136.49 145.9 142.15 145.91 144.38 144.37 144.63 144.6 147.65 140.47 143.65 137.82 141.16 135 138.58 132.66 136.5 132.67 133.74 132.66 127.74 Z"/>
<path d="M 168.15 105.46 172.23 105.46 177.35 105.46 183.33 105.46 183.61 106.58 183.51 108.25 184.16 110.23 184.3 113.29 184.72 114.32 184.81 115.55 182.11 115.55 178.29 115.53 172.52 115.52 168.16 115.52 168.17 109.47 168.15 105.46 Z"/>
<path d="M 220.5 127.79 222.19 126.91 222.19 127.73 226.48 127.73 232.03 127.74 232.53 128.2 232.82 129.22 233.46 129.64 232.49 130.75 232.37 131.96 233.4 133.17 231.86 134.19 231.03 134.42 227.29 134.43 222.82 134.43 220.5 134.43 220.51 131.75 220.5 127.79 Z"/>
<path d="M 214.74 147.65 216.3 147.1 219.34 147.25 219.89 148.13 222.38 148.18 224.91 150.75 224.39 150.97 223.58 151.95 223.41 152.61 221.66 154.06 220.91 154.4 219.69 155.57 219.18 155.36 219 154.43 218.55 154.06 218.32 152.98 217.76 152.62 217.37 151.79 215.97 150.5 215.27 149.08 214.23 148.51 214.74 147.65 Z"/>
<path d="M 241.5 117.55 242.17 117.15 243.33 115.69 243.26 114.75 243.79 113.96 243.92 113.1 245.65 110.61 246.36 111.53 247.56 110.95 248.83 111.9 248.8 116.37 249.66 116.93 249.52 117.67 250.33 118.16 250.7 119.09 249.93 119.77 248.08 120.43 247.38 121.28 245.96 121.72 245.42 122.08 243.54 122.64 242.34 124.52 241.72 123.56 241.75 122.96 241.5 117.55 Z"/>
<path d="M 52.45 185.96 52.95 185.38 52.81 184.84 54.19 185.41 54.6 185.79 55.06 186.78 53.66 187.48 53.42 187.87 52.75 187.57 52.81 186.98 52.45 185.96 Z M 51 183.26 52.02 183.22 52.43 183.52 52.27 183.96 51.6 184.02 51.51 183.57 51 183.26 Z M 47.6 181.67 48.18 181.37 48.73 181.97 48.78 182.44 47.88 182.36 47.6 181.67 Z M 44.14 180.52 44.59 180.14 45.24 180.38 45.14 180.79 44.54 180.94 44.14 180.52 Z" fill-rule="evenodd"/>
<path d="M 239.77 129.75 239.91 127.7 240.84 127.67 241.42 129.22 239.77 129.75 Z"/>
<path d="M 236.15 127.57 239.91 127.7 239.77 129.75 237.38 129.93 235.77 130.74 236.01 129.82 236.15 127.57 Z"/>
<path d="M 206.48 128.44 206.98 127.97 207.52 126.96 207.85 125.42 207.74 124.45 207.11 122.73 207.17 121.46 207.71 120.56 207.76 119.46 208.18 118.8 209.69 118.37 209.71 117.66 210.27 116.72 211.16 116.05 212.32 116.55 214.13 117.65 214.39 118.43 214.24 120.6 213.69 121.46 213.05 121.76 212.88 122.45 213.46 122.9 214.08 121.88 215.14 121.42 215.8 122.16 216.05 124.02 216.28 124.69 216.08 125.8 215.3 126.09 214.69 127.46 213.98 128.52 210.97 128.63 210.97 128.44 206.48 128.44 Z M 198.48 113.52 199.78 112.75 200.71 112.62 203.38 110.64 203.54 112.22 204.76 112.82 205.27 113.71 207.07 113.77 208 113.17 210.47 113.17 210.6 113.81 212.5 113.68 212.58 115.44 211.35 115.5 211 115.79 210.2 115.18 209.33 115.09 208.5 115.6 207.69 115.53 207.11 116.27 206.59 115.95 205.7 116.42 204.77 118.22 204.16 117.4 204.35 116.38 203.6 115.59 202.05 115.27 201.43 114.9 199.14 114.26 198.48 113.52 Z" fill-rule="evenodd"/>
<path d="M 783.38 91.47 784.85 91.34 784.36 92.18 783.38 91.47 Z M 101.66 80.12 102.27 79.47 102.28 78.5 103.3 78.47 104.91 80.67 105.39 82.11 106.01 83.03 106.06 84.54 104.03 84.89 103.22 82.96 101.98 81.95 102.31 80.88 101.66 80.12 Z M 100.64 76.33 101.76 75.37 103.5 75.75 104.58 77.15 104.47 77.63 101.91 78.24 101.6 79.44 101.06 79.66 100.64 76.33 Z M 99.37 69.93 100.16 70.91 101.1 71.31 101.94 73.26 101.55 74.53 100.4 75.64 100.28 74.1 99.77 71.28 99.37 69.93 Z M 95.81 71.48 96.2 70.57 97.7 70.65 99.4 71.48 99.61 74.69 100.11 76.95 100.1 78.74 98.06 76.42 98.5 75.69 97.35 74.86 97.3 74.1 96.53 73.19 95.81 71.48 Z M 55.28 74.27 55.85 73.39 57.02 73.06 57.16 72.41 60.04 69.64 61.17 69.96 61.77 70.92 60.28 71.24 60.48 72.77 59.46 75.23 56.97 77.04 55.84 75.76 55.28 74.27 Z M 27.13 62.11 29.49 61.4 31.02 61.68 31.24 63.4 29.51 63.7 27.35 62.69 27.13 62.11 Z M 26.33 90.06 27.47 89.53 28.07 88.49 28.02 87.77 28.88 87.51 30.1 88.22 28.65 89.67 27.72 89.77 26.7 90.38 26.33 90.06 Z M 25.58 35.33 31.63 31.15 33.87 30.25 35.64 30.38 34.95 32.42 35.44 33.14 37.54 32.97 39.57 33.34 40.36 32.02 37.8 27.89 35.43 27.26 34.65 24.62 31.76 21.91 28.98 20.07 29.58 19.42 29.81 16.78 31.38 16.89 34.2 16.42 36.44 14.08 37.01 10.77 39.48 7.48 40.8 7.7 43.18 5.96 44.44 4.37 48.04 4.12 49.4 3.13 50.76 1 54.65 1.98 55.74 4.16 58.71 3.5 61.03 4.37 63.3 7.18 67.11 6.23 69.58 7.65 72.23 8.63 73.68 8.43 77.77 9.86 80.86 8.66 82.81 10.18 85.93 11.93 85.93 19.08 85.93 34.34 85.93 54.26 85.93 61.62 88.19 62.16 88.83 61.46 90.19 61.39 89.94 62.58 93.49 66.32 93.84 67.76 95.77 66.66 96.28 64.76 98.22 63.88 99.23 64.92 99.37 66.16 100.44 66.82 100.95 67.98 101.87 68.54 102.89 69.82 104.72 73.7 105.85 75.56 105.68 76.28 108 78.18 110.18 79.34 110.14 80.57 110.41 82.7 109.66 84.04 108.99 84.59 106.8 83.94 106.31 81.95 105.55 81.43 105.34 80.1 103.79 78.04 104.96 77.54 103.88 75.57 102.52 74.78 102.58 73.59 101.19 70.79 100.11 70.59 99.84 69.98 99.05 69.73 97.67 69.95 95.74 70.71 93.57 69.14 92.11 67.23 91.2 66.81 87.62 64.37 86.4 64.19 84.61 63.16 82.05 62.57 79.49 63.05 76.84 61.56 74.84 61.25 73.46 61.91 72.77 61.69 71.46 63.69 70.46 63.17 67.86 63.13 66.09 64.35 64.95 65.88 64.08 65.94 62.21 66.98 61.71 65.54 62.96 64.88 61.75 64.01 62.75 62.04 63.06 60.76 62.77 59.79 65.02 58.3 65.94 59.02 66.54 58.42 65.46 57.27 63.82 57.5 62.62 58.42 60.72 60.87 59.9 63.34 59.12 64.35 58.03 64.62 57.02 65.7 56.61 66.84 57.69 67.05 58.64 67.94 57.34 69.04 56.52 71.07 54.52 71.82 54 72.82 51.76 74.13 51.34 75.83 49.16 76.77 48.52 77.74 47.48 77.88 47.02 78.44 47.15 79.83 45.67 80.14 44.7 81.09 44 80.59 42.5 81.88 40.87 82.35 39.91 82.14 39.31 83.3 36.42 84.36 35.71 85.19 34.68 85.18 33.34 86.08 32.85 85.92 33.48 84.41 37.21 82.75 38.72 80.95 39.64 80.23 41.09 79.75 42.35 79.87 42.8 78.69 44.04 77.62 45.95 76.42 47.4 74.62 48.83 73.45 49.27 69.6 50.2 68.49 50.08 67.94 47.8 69.03 46.4 67.96 46.55 69.59 45.75 69.84 44.98 68.35 42.04 67.71 39.76 69.3 39.65 67.41 39.1 66.27 39.87 65.24 38.7 62.74 35.97 63.83 34.47 63.67 34.47 63.03 33.21 61.66 31.73 60.71 32.56 59.84 32.41 58.19 31.11 57.83 30.88 56.21 29.84 55.65 30.1 54.68 31.11 54.53 31.04 53.14 32.62 50.65 33.41 48.43 34.61 47.69 36.28 48.8 36.87 48.7 38.43 46.74 41.01 46.56 41.92 45.25 41.52 42.88 40.85 41.96 41.9 40.82 40.6 40.02 38.79 40.54 36.69 42.05 35.46 41.08 32.97 41.7 29.79 41.01 29.35 39.44 28.28 38.17 29.33 37.14 27.03 36.64 25.58 35.33 Z M 17.33 46.19 17.4 45.43 19.3 46.16 20.65 45.54 21.39 46.64 24.34 47.53 23.99 48.23 22.45 48.62 20.83 48.11 19.42 46.92 18.22 47.47 17.33 46.19 Z M 9.62 94.76 10.92 94.5 12.1 93.44 12.46 94.48 11.6 94.91 9.62 94.76 Z" fill-rule="evenodd"/>
<path d="M 231.86 134.19 231.61 135.07 232.11 136.75 232.59 137.08 232.68 138.07 231.24 138.04 231.03 134.42 231.86 134.19 Z"/>
<path d="M 157.04 142.15 159.36 142.15 163.8 142.16 166.63 142.17 170.48 142.15 170.48 143.54 170.39 147.15 170.39 150.14 170.34 155.66 166.83 155.66 162.43 155.66 162.64 156.23 158.9 156.22 158.9 157.4 157.02 157.4 157.03 153.61 157.03 147.76 157.04 142.15 Z"/>
<path d="M 203.42 147.66 209.19 147.69 210.13 153.39 210.78 154.97 210.4 155.3 210.22 156.08 210.44 156.85 210.3 157.78 210.53 158.27 208.55 158.28 204.75 158.27 205.2 159.16 204.93 160.13 204.31 160.01 203.72 159.19 203.56 160.02 202.98 159.9 202.82 155.83 203.15 152.53 203.64 147.94 203.42 147.66 Z"/>
<path d="M 250.05 189.28 250.31 188.95 253.02 189.09 253.73 189.23 253.7 189.65 252.72 190.3 250.11 190.17 250.05 189.28 Z"/>
<path d="M 172.6 133.61 177.58 133.61 181.44 133.61 187.6 133.62 188.6 134.34 188.03 134.91 188.73 135.91 189.16 136.18 189.14 142.15 186.54 142.15 182.81 142.15 179.1 142.15 175.26 142.15 172.62 142.17 172.61 137.37 172.6 133.61 Z"/>
<path d="M 236.47 118.48 240.57 118.47 240.29 119.31 240.39 120.08 239.36 120.73 239.38 121.32 238.62 122.95 238.44 125.53 236.65 125.47 236.7 123.07 236.26 121.5 236.58 120.27 236.37 119.71 236.47 118.48 Z"/>
<path d="M 231.86 134.19 233.4 133.17 232.37 131.96 232.49 130.75 233.46 129.64 235.25 130.7 234.43 132.15 235.07 132.61 234.78 134.33 234.09 135.47 233.04 136.09 231.61 135.07 231.86 134.19 Z"/>
<path d="M 240.57 118.47 241.05 117.56 241.5 117.55 241.75 122.96 241.72 123.56 242.34 124.52 242.09 125.09 241.03 125.62 238.44 125.53 238.62 122.95 239.38 121.32 239.36 120.73 240.39 120.08 240.29 119.31 240.57 118.47 Z"/>
<path d="M 144.41 153.76 144.97 153.43 144.52 152.92 144.44 152.02 144.84 151.55 144.82 150.54 145.7 149.65 144.6 148 144.6 147.65 144.37 144.63 145.91 144.38 145.9 142.15 148.31 142.15 152.07 142.15 157.04 142.15 157.03 147.76 157.03 153.61 157.02 157.4 152.52 157.4 149.65 156.34 144.2 154.36 144.41 153.76 Z"/>
</g>
</svg>